<svg width="558" height="71" viewBox="0 0 558 71" fill="none" xmlns="http://www.w3.org/2000/svg">
<path d="M469.344 0H484.016V42.4688C484.016 47.2188 484.579 50.6875 485.704 52.875C487.454 56.75 491.266 58.6875 497.141 58.6875C502.985 58.6875 506.782 56.75 508.532 52.875C509.657 50.6875 510.219 47.2188 510.219 42.4688V0H524.891V42.4688C524.891 49.8125 523.75 55.5312 521.469 59.625C517.219 67.125 509.11 70.875 497.141 70.875C485.172 70.875 477.047 67.125 472.766 59.625C470.485 55.5312 469.344 49.8125 469.344 42.4688V0Z" fill="black"/>
<path d="M397.956 69.0938V0H412.252V26.3438H439.252V0H453.596V69.0938H439.252V38.25H412.252V69.0938H397.956Z" fill="black"/>
<path d="M353.991 69.0938H339.647V0H353.991V69.0938Z" fill="black"/>
<path d="M325.914 12.2344H289.352V26.9062H322.914V38.9062H289.352V56.6719H327.602V69.0938H275.242V0H325.914V12.2344Z" fill="black"/>
<path d="M214.213 0.09375H263.198V12.2344H228.557V28.125H258.885V40.125H228.557V69.0938H214.213V0.09375Z" fill="black"/>
<path d="M142.684 0H157.824L185.34 48.2344V0H198.793V69.0938H184.356L156.137 20.0156V69.0938H142.684V0Z" fill="black"/>
<path d="M71.6232 0H86.295V42.4688C86.295 47.2188 86.8575 50.6875 87.9825 52.875C89.7325 56.75 93.545 58.6875 99.42 58.6875C105.264 58.6875 109.061 56.75 110.811 52.875C111.936 50.6875 112.498 47.2188 112.498 42.4688V0H127.17V42.4688C127.17 49.8125 126.029 55.5312 123.748 59.625C119.498 67.125 111.389 70.875 99.42 70.875C87.4513 70.875 79.3263 67.125 75.045 59.625C72.7638 55.5312 71.6232 49.8125 71.6232 42.4688V0Z" fill="black"/>
<path d="M45.0938 0H61.4531L38.3438 43.125V69.0938H23.9062V43.125L0 0H17.0156L31.3594 30.0938L45.0938 0Z" fill="black"/>
<path opacity="0.54" d="M541.359 53.0938H557.359V69.0938H541.359V53.0938Z" fill="black"/>
</svg>
