<svg width="20" height="20" viewBox="0 0 20 20" fill="none" xmlns="http://www.w3.org/2000/svg">
<path d="M16 0C18.2091 0 20 1.79086 20 4V16C20 18.2091 18.2091 20 16 20H4C1.79086 20 3.22133e-08 18.2091 0 16V4C0 1.79086 1.79086 3.22128e-08 4 0H16ZM5.34863 9.24023C4.88329 9.63939 4.88304 10.3599 5.34863 10.7588L11.5894 16.108C12.0087 16.4674 12.6401 16.4188 12.9995 15.9995C13.3589 15.5802 13.3105 14.9488 12.8911 14.5894L8.42191 10.7583C7.95631 10.3592 7.95635 9.63888 8.42198 9.2398L12.891 5.40961C13.3104 5.05018 13.3589 4.41879 12.9995 3.99945C12.64 3.58016 12.0087 3.53158 11.5894 3.89099L5.34863 9.24023Z" fill="#333333"/>
</svg>
