<svg width="20" height="20" viewBox="0 0 20 20" fill="none" xmlns="http://www.w3.org/2000/svg">
<path d="M20 18C20 19.1046 19.1046 20 18 20H2C0.895431 20 1.61067e-08 19.1046 0 18V16.5996C0 15.495 0.895431 14.5996 2 14.5996H18C19.1046 14.5996 20 15.495 20 16.5996V18ZM20 10.5996C20 11.7042 19.1046 12.5996 18 12.5996H2C0.895431 12.5996 0 11.7042 0 10.5996V9.2998C0 8.19524 0.895431 7.2998 2 7.2998H18C19.1046 7.2998 20 8.19524 20 9.2998V10.5996ZM18 0C19.1046 2.57702e-07 20 0.895431 20 2V3.2998C20 4.40437 19.1046 5.2998 18 5.2998H2C0.895431 5.2998 0 4.40437 0 3.2998V2C2.57706e-07 0.895431 0.895431 1.61064e-08 2 0H18Z" fill="#333333"/>
</svg>
