<svg width="24" height="24" viewBox="0 0 24 24" fill="none" xmlns="http://www.w3.org/2000/svg">
<path d="M19.8796 3H4.1204C3.02784 3.00075 1.98024 3.42892 1.20767 4.19049C0.435112 4.95206 0.000756365 5.98476 0 7.06178L0 17.9354C0.000755239 19.0127 0.43502 20.0457 1.2075 20.8077C1.97998 21.5697 3.02758 21.9985 4.1204 22H19.8796C20.9724 21.9985 22.02 21.5697 22.7925 20.8077C23.565 20.0457 23.9992 19.0127 24 17.9354V7.06178C23.9992 5.98476 23.5649 4.95206 22.7923 4.19049C22.0198 3.42892 20.9722 3.00075 19.8796 3ZM22.064 7.06178V17.9354C22.0633 18.5063 21.8329 19.0536 21.4234 19.4572C21.0139 19.8609 20.4587 20.088 19.8796 20.0887H4.1204C3.54156 20.088 2.98668 19.8608 2.57764 19.4571C2.1686 19.0533 1.93885 18.506 1.93885 17.9354V7.06178C1.93857 6.79894 1.98795 6.53835 2.08447 6.29333L10.3653 13.153C10.8246 13.5374 11.4075 13.7484 12.01 13.7484C12.6125 13.7484 13.1954 13.5374 13.6547 13.153L21.9355 6.29052C22.0265 6.53753 22.07 6.79906 22.064 7.06178ZM12.3955 11.695C12.285 11.7874 12.1449 11.8381 12 11.8381C11.8551 11.8381 11.715 11.7874 11.6045 11.695L3.52647 4.99289C3.7196 4.93843 3.91953 4.91095 4.1204 4.91126H19.8796C20.0805 4.91095 20.2804 4.93843 20.4735 4.99289L12.3955 11.695Z" fill="#333333"/>
</svg>
