<svg width="52" height="40" viewBox="0 0 52 40" fill="none" xmlns="http://www.w3.org/2000/svg">
<path d="M0.284931 0.244127H0.000118353V0L29.859 0V8.46282H29.6149C29.6149 5.31113 29.0658 3.48907 26.8074 2.35988C24.5491 1.23069 19.6871 1.34251 17.0017 1.34251H10.5923L10.6139 18.3529H16.4727C20.338 18.3529 22.8647 18.2128 23.7558 17.4174C24.0437 17.1603 24.122 16.3684 24.122 16.1151H24.3661V21.8979H24.122C24.122 21.6585 23.981 20.8563 23.6723 20.5807C22.8559 19.8518 20.338 19.6922 16.4727 19.6922H10.6139V35.033C10.6139 38.5321 10.8987 39.7528 15.2116 39.7528H15.4557V39.9969H0V39.7528H0.284812C4.59769 39.7528 4.84181 38.5321 4.84181 35.033L4.84193 4.96388C4.84193 1.46475 4.59781 0.244127 0.284931 0.244127Z" fill="#333333"/>
<path d="M48.8039 39.7538V39.9979L29.9966 39.9998V39.7557C33.1702 39.7557 33.455 38.7792 33.455 35.7682C33.455 32.7572 33.1702 31.9034 29.9966 31.9034V31.6186L45.3862 31.6167V35.7663C45.3862 38.7773 45.6303 39.7538 48.8039 39.7538Z" fill="#333333"/>
<path d="M39.3604 8.84424L41.662 17.5015L49.5322 20.0333L41.662 22.5651L39.3604 31.2224L37.0587 22.5651L29.1885 20.0333L37.0587 17.5015L39.3604 8.84424Z" fill="#333333"/>
<path fill-rule="evenodd" clip-rule="evenodd" d="M27.8786 10.7724C29.0503 9.00755 35.3027 11.0964 41.8445 15.4385C48.386 19.7804 52.7391 24.7309 51.5681 26.4961C50.6468 27.8826 46.5886 26.8879 41.7175 24.291L41.7937 24.0049C43.1476 24.6351 44.5243 25.2028 45.9226 25.6611C46.8791 25.971 47.8441 26.2318 48.8005 26.3623C49.6985 26.5157 50.8649 26.3794 50.9324 26.0742C51.021 25.9603 50.9639 25.4668 50.7175 24.9834C50.4848 24.5007 50.1464 24.0039 49.7771 23.5332C49.033 22.5905 48.1514 21.7071 47.2361 20.8691C45.393 19.192 43.3761 17.6784 41.282 16.2851C39.1848 14.8964 37.0071 13.6261 34.7458 12.5791C33.6181 12.061 32.4621 11.5921 31.3044 11.2724C30.7273 11.1149 30.1384 10.9948 29.6033 10.9678C29.0618 10.9283 28.5837 11.0683 28.5134 11.1943C28.2589 11.3756 28.587 12.5029 29.0769 13.2705C29.5685 14.1011 30.1836 14.8884 30.8406 15.6494C31.607 16.5311 32.4319 17.3735 33.2927 18.1855L32.9128 18.3076C29.1376 15.0796 27.0193 12.0685 27.8786 10.7724Z" fill="#333333"/>
</svg>
