<svg width="20" height="20" viewBox="0 0 20 20" fill="none" xmlns="http://www.w3.org/2000/svg">
<path d="M7.5 10.5C8.60457 10.5 9.5 11.3954 9.5 12.5V18C9.5 19.1046 8.60457 20 7.5 20H4C1.79086 20 3.22133e-08 18.2091 0 16V12.5C0 11.3954 0.895431 10.5 2 10.5H7.5ZM20 16C20 18.2091 18.2091 20 16 20H12.5C11.3954 20 10.5 19.1046 10.5 18V12.5C10.5 11.3954 11.3954 10.5 12.5 10.5H18C19.1046 10.5 20 11.3954 20 12.5V16ZM16 0C18.2091 0 20 1.79086 20 4V7.5C20 8.60457 19.1046 9.5 18 9.5H12.5C11.3954 9.5 10.5 8.60457 10.5 7.5V2C10.5 0.89543 11.3954 0 12.5 0H16ZM9.5 7.5C9.5 8.60457 8.60457 9.5 7.5 9.5H2C0.89543 9.5 0 8.60457 0 7.5V4C0 1.79086 1.79086 3.22128e-08 4 0H7.5C8.60457 0 9.5 0.895431 9.5 2V7.5Z" fill="#333333"/>
</svg>
