<svg width="35" height="32" viewBox="0 0 35 32" fill="none" xmlns="http://www.w3.org/2000/svg">
<path d="M7.66699 22.7598C8.77156 22.7598 9.66699 23.6552 9.66699 24.7598V30C9.66699 31.1046 8.77156 32 7.66699 32H2C0.895499 32 0.000111319 31.1045 0 30V24.7598C0 23.6552 0.895431 22.7598 2 22.7598H7.66699ZM34.666 30C34.6659 31.1045 33.7705 32 32.666 32H13.667C12.5624 32 11.667 31.1046 11.667 30V24.7598C11.667 23.6552 12.5624 22.7598 13.667 22.7598H32.666C33.7706 22.7598 34.666 23.6552 34.666 24.7598V30ZM34.666 18.7598C34.666 19.8643 33.7706 20.7598 32.666 20.7598H13.667C12.5624 20.7598 11.667 19.8643 11.667 18.7598V13.0801C11.667 11.9755 12.5624 11.0801 13.667 11.0801H32.666C33.7706 11.0801 34.666 11.9755 34.666 13.0801V18.7598ZM7.66699 11.0801C8.77156 11.0801 9.66699 11.9755 9.66699 13.0801V18.7598C9.66699 19.8643 8.77156 20.7598 7.66699 20.7598H2C0.89543 20.7598 0 19.8643 0 18.7598V13.0801C0 11.9755 0.895431 11.0801 2 11.0801H7.66699ZM32.666 0C33.7706 0 34.666 0.895431 34.666 2V7.08008C34.666 8.18465 33.7706 9.08008 32.666 9.08008H13.667C12.5624 9.08008 11.667 8.18465 11.667 7.08008V2C11.667 0.89543 12.5624 0 13.667 0H32.666ZM9.66699 7.08008C9.66699 8.18465 8.77156 9.08008 7.66699 9.08008H2C0.89543 9.08008 0 8.18465 0 7.08008V2C0 0.895431 0.895431 6.97563e-09 2 0H7.66699C8.77156 0 9.66699 0.895431 9.66699 2V7.08008Z" fill="#333333"/>
</svg>
